<svg height="511pt" viewBox="0 0 511.99991 511" width="511pt" xmlns="http://www.w3.org/2000/svg"><g fill-rule="evenodd"><path d="m409.488281 330.195312c.335938-.5625.617188-1.164062.835938-1.792968 10.226562-21.855469 15.953125-46.222656 15.953125-71.902344 0-25.683594-5.726563-50.050781-15.953125-71.910156-.21875-.625-.5-1.226563-.835938-1.789063-27.523437-57.089843-85.980469-96.578125-153.488281-96.578125s-125.96875 39.488282-153.492188 96.585938c-.332031.558594-.609374 1.152344-.828124 1.773437-10.226563 21.859375-15.957032 46.230469-15.957032 71.917969 0 25.683594 5.726563 50.054688 15.957032 71.914062.21875.621094.496093 1.214844.828124 1.777344 27.523438 57.09375 85.984376 96.582032 153.492188 96.582032s125.964844-39.488282 153.488281-96.578126zm-303.765625-73.695312c0-20.777344 4.238282-40.582031 11.898438-58.597656h50.648437c-5.246093 19.230468-8.015625 39.160156-8.015625 58.597656 0 19.433594 2.769532 39.363281 8.015625 58.59375h-50.648437c-7.660156-18.011719-11.898438-37.820312-11.898438-58.59375zm74.53125 0c0-18.816406 3.089844-39.085938 8.9375-58.597656h56.808594v117.191406h-56.808594c-5.847656-19.511719-8.9375-39.78125-8.9375-58.59375zm226.023438 0c0 20.773438-4.242188 40.582031-11.898438 58.59375h-50.648437c5.246093-19.230469 8.015625-39.160156 8.015625-58.59375 0-19.4375-2.769532-39.367188-8.015625-58.597656h50.648437c7.65625 18.015625 11.898438 37.820312 11.898438 58.597656zm-74.53125 0c0 18.8125-3.09375 39.082031-8.941406 58.59375h-56.804688v-117.191406h56.808594c5.847656 19.511718 8.9375 39.78125 8.9375 58.597656zm-65.746094 143.820312v-65.226562h49.714844c-11.277344 27.296875-28.179688 51.328125-49.714844 65.226562zm0-222.417968v-65.226563c21.535156 13.894531 38.441406 37.929688 49.714844 65.226563zm-20-65.226563v65.226563h-49.714844c11.273438-27.296875 28.179688-51.332032 49.714844-65.226563zm0 222.417969v65.226562c-21.535156-13.898437-38.441406-37.929687-49.714844-65.226562zm50.164062 66.222656c11.851563-11.738281 22.445313-26.460937 31.167969-43.574218 3.714844-7.292969 7.023438-14.875 9.933594-22.648438h46.765625c-19.664062 31.921875-50.925781 55.964844-87.867188 66.222656zm87.867188-223.414062h-46.765625c-2.910156-7.773438-6.214844-15.355469-9.933594-22.648438-8.726562-17.113281-19.316406-31.835937-31.167969-43.574218 36.941407 10.257812 68.203126 34.300781 87.867188 66.222656zm-168.195312-66.222656c-11.851563 11.738281-22.445313 26.460937-31.167969 43.574218-3.71875 7.292969-7.027344 14.875-9.933594 22.648438h-46.769531c19.667968-31.921875 50.929687-55.964844 87.871094-66.222656zm-87.871094 223.414062h46.769531c2.90625 7.773438 6.214844 15.355469 9.933594 22.648438 8.722656 17.113281 19.316406 31.835937 31.167969 43.574218-36.941407-10.257812-68.203126-34.300781-87.871094-66.222656zm0 0"/><path d="m31.757812 266.496094c.050782.003906.132813.003906.199219.003906.089844 0 .183594-.003906.273438-.003906 2.464843-.066406 4.703125-1.023438 6.410156-2.5625.003906 0 .003906-.003906.007813-.007813.003906-.003906.007812-.007812.011718-.007812.007813-.007813.011719-.011719.015625-.019531h.003907c.191406-.175782.375-.355469.554687-.546876 0 0 .003906 0 .003906-.003906.007813-.003906.011719-.011718.015625-.015625.039063-.039062.074219-.078125.109375-.117187l27.195313-29.8125c3.722656-4.078125 3.433594-10.402344-.648438-14.125-4.078125-3.722656-10.40625-3.433594-14.125.648437l-8.007812 8.777344c11.742187-89.207031 79.214844-163.492187 169.027344-181.890625 5.410156-1.105469 8.898437-6.390625 7.789062-11.800781-1.109375-5.410157-6.394531-8.898438-11.804688-7.792969-52.03125 10.660156-99.40625 39.222656-133.402343 80.421875-27.910157 33.824219-45.660157 74.941406-51.398438 118.164063l-5.59375-8.636719c-3.003906-4.632813-9.195312-5.960938-13.828125-2.953125-4.6367185 3-5.960937 9.191406-2.957031 13.828125l21.863281 33.753906c.304688.484375.648438.941406 1.027344 1.367187.003906.003907.003906.003907.007812.007813 0 0 .003907.003906.007813.007813.238281.265624.492187.519531.761719.761718.003906.007813.007812.007813.011718.011719 1.722657 1.539063 3.976563 2.492187 6.453126 2.542969zm0 0"/><path d="m46.316406 299.691406c-1.109375-5.410156-6.398437-8.898437-11.804687-7.789062-5.410157 1.109375-8.898438 6.394531-7.789063 11.804687 7.910156 38.628907 25.726563 74.945313 51.519532 105.03125 1.980468 2.304688 4.777343 3.488281 7.597656 3.488281 2.304687 0 4.617187-.789062 6.503906-2.40625 4.191406-3.59375 4.675781-9.910156 1.082031-14.101562-23.585937-27.511719-39.878906-60.71875-47.109375-96.027344zm0 0"/><path d="m246.003906 32.75v.003906c.074219 2.429688 1.011719 4.644532 2.519532 6.339844.195312.222656.402343.433594.621093.640625l.015625.015625c.007813.007812.011719.011719.019532.019531.035156.03125.066406.0625.101562.09375l29.8125 27.195313c4.082031 3.722656 10.40625 3.433594 14.125-.648438 3.722656-4.078125 3.433594-10.402344-.644531-14.125l-8.789063-8.019531c26.578125 3.476563 52.371094 11.90625 75.789063 24.882813 1.535156.851562 3.199219 1.253906 4.839843 1.253906 3.515626 0 6.929688-1.859375 8.753907-5.152344 2.675781-4.832031.929687-10.917969-3.898438-13.59375-25.519531-14.140625-53.613281-23.347656-82.5625-27.175781l8.621094-5.585938c4.636719-3.003906 5.957031-9.195312 2.957031-13.832031-3.003906-4.632812-9.195312-5.957031-13.832031-2.953125l-33.75 21.863281c-.519531.324219-1.007813.695313-1.460937 1.109375 0 .003907-.003907.003907-.003907.007813-.003906 0-.007812.003906-.007812.007812-.207031.1875-.402344.382813-.589844.585938-.003906.003906-.003906.003906-.003906.007812-.003907.003906-.007813.007813-.011719.011719-1.585938 1.730469-2.570312 4.019531-2.625 6.535156-.003906.167969 0 .335938.003906.503907zm0 0"/><path d="m465.683594 213.304688c.972656 4.730468 5.136718 7.992187 9.789062 7.992187.664063 0 1.339844-.0625 2.015625-.203125 5.410157-1.109375 8.898438-6.394531 7.789063-11.804688-7.914063-38.621093-25.726563-74.9375-51.519532-105.027343-3.597656-4.195313-9.910156-4.679688-14.101562-1.085938-4.195312 3.59375-4.679688 9.90625-1.085938 14.101563 23.589844 27.519531 39.882813 60.722656 47.113282 96.027344zm0 0"/><path d="m510.390625 284.953125-21.902344-33.808594c-.097656-.152343-.199219-.304687-.304687-.453125 0-.003906 0-.003906-.003906-.007812-.601563-.84375-1.328126-1.582032-2.140626-2.1875-1.59375-1.195313-3.554687-1.925782-5.683593-1.992188-.007813 0-.015625 0-.023438 0-.191406-.007812-.382812-.007812-.570312 0-.007813 0-.007813 0-.015625 0-2.851563.082032-5.40625 1.359375-7.175782 3.351563l-27.132812 29.738281c-3.71875 4.078125-3.429688 10.402344.648438 14.125 4.082031 3.722656 10.40625 3.433594 14.128906-.648438l8.007812-8.777343c-11.746094 89.207031-79.21875 163.492187-169.027344 181.890625-5.414062 1.109375-8.898437 6.394531-7.792968 11.804687.972656 4.734375 5.136718 7.996094 9.789062 7.996094.664063 0 1.339844-.066406 2.015625-.207031 52.03125-10.660156 99.40625-39.21875 133.402344-80.417969 27.910156-33.828125 45.664063-74.941406 51.398437-118.167969l5.597657 8.636719c3 4.636719 9.191406 5.960937 13.828125 2.957031 4.636718-3.003906 5.960937-9.195312 2.957031-13.832031zm0 0"/><path d="m265.992188 480.175781c-.074219-2.074219-.78125-3.984375-1.925782-5.546875-.390625-.53125-.832031-1.023437-1.328125-1.476562l-29.832031-27.214844c-4.082031-3.71875-10.40625-3.429688-14.128906.648438-3.722656 4.082031-3.429688 10.40625.648437 14.128906l8.789063 8.015625c-26.578125-3.476563-52.371094-11.90625-75.792969-24.882813-4.832031-2.675781-10.917969-.929687-13.59375 3.902344-2.675781 4.828125-.929687 10.914062 3.902344 13.59375 25.523437 14.140625 53.613281 23.347656 82.5625 27.171875l-8.625 5.589844c-4.636719 3-5.957031 9.191406-2.957031 13.828125 1.914062 2.957031 5.125 4.5625 8.402343 4.5625 1.863281 0 3.75-.519532 5.429688-1.605469l33.714843-21.84375c2.796876-1.734375 4.679688-4.8125 4.738282-8.332031v-.003906c0-.003907 0-.007813 0-.011719.003906-.171875 0-.339844-.003906-.507813 0-.003906 0-.011718 0-.015625zm0 0"/><path d="m114.453125 420.171875c-5.511719 0-10.003906 4.492187-10.003906 10s4.492187 10 10.003906 10c5.507813 0 9.996094-4.492187 9.996094-10s-4.488281-10-9.996094-10zm0 0"/><path d="m397.546875 92.824219c5.507813 0 10-4.492188 10-10 0-5.507813-4.492187-10-10-10s-10 4.492187-10 10c0 5.507812 4.492187 10 10 10zm0 0"/></g></svg>