<?xml version="1.0"?>
<svg xmlns="http://www.w3.org/2000/svg" viewBox="0 0 80 80">
    <path style="line-height:normal;text-indent:0;text-align:start;text-decoration-line:none;text-decoration-style:solid;text-decoration-color:#000;text-transform:none;block-progression:tb;isolation:auto;mix-blend-mode:normal" d="M 32 8 L 32 19.779297 L 24.925781 35 L 22 35 L 7.8984375 35 L 9.703125 53.646484 L 11.085938 69 L 12 69 L 22 69 L 22 65 L 24.908203 65 C 26.392687 67.44103 29.005085 69 31.894531 69 L 59.300781 69 C 62.117786 69 64.661188 66.953908 64.966797 64.09375 C 65.110427 62.750195 64.637372 61.582797 63.953125 60.5625 C 66.284595 59.742921 68 57.605863 68 55 C 68 53.578903 67.381356 52.375751 66.550781 51.347656 C 68.571141 50.382851 70 48.380794 70 46 C 70 44.574917 69.377729 43.369245 68.542969 42.339844 C 70.648862 41.334735 72.11366 39.205485 71.992188 36.703125 C 71.833983 33.441221 68.988967 31 65.779297 31 L 42.882812 31 C 43.23896 29.190176 43.611201 27.290328 43.902344 25.570312 C 44.257683 23.471041 44.513672 21.725598 44.513672 20.642578 C 44.513137 17.686256 43.677162 14.632418 42.228516 12.232422 C 40.779869 9.8324259 38.626915 8 36 8 L 32 8 z M 34 10 L 36 10 C 37.680085 10 39.284271 11.225621 40.515625 13.265625 C 41.746979 15.305629 42.513207 18.0729 42.513672 20.642578 C 42.513672 21.361558 42.279348 23.170601 41.929688 25.236328 C 41.580027 27.302055 41.122102 29.682543 40.697266 31.802734 L 40.457031 33 L 65.779297 33 C 67.977626 33 69.892298 34.660685 69.996094 36.800781 C 70.0969 38.877388 68.63531 40.586592 66.693359 40.927734 L 64.318359 41.345703 L 66.292969 42.730469 C 67.325714 43.455878 68 44.640136 68 46 C 68 47.9817 66.571765 49.597852 64.693359 49.927734 L 62.318359 50.345703 L 64.292969 51.730469 C 65.325714 52.455878 66 53.640136 66 55 C 66 57.146852 64.331727 58.862015 62.210938 58.974609 L 59.550781 59.115234 L 61.646484 60.759766 C 62.563668 61.47968 63.116096 62.593896 62.978516 63.880859 C 62.788125 65.662701 61.151776 67 59.300781 67 L 31.894531 67 C 29.530279 67 27.37401 65.667078 26.316406 63.552734 L 25.421875 65 L 25.421875 63 L 22 63 L 22 37 L 26.201172 37 L 34 20.220703 L 34 10 z M 10.101562 37 L 20 37 L 20 67 L 12.914062 67 L 11.695312 53.460938 L 10.101562 37 z M 17 39 A 1 1 0 0 0 16 40 A 1 1 0 0 0 17 41 A 1 1 0 0 0 18 40 A 1 1 0 0 0 17 39 z M 17 43 A 1 1 0 0 0 16 44 A 1 1 0 0 0 17 45 A 1 1 0 0 0 18 44 A 1 1 0 0 0 17 43 z M 17 47 A 1 1 0 0 0 16 48 A 1 1 0 0 0 17 49 A 1 1 0 0 0 18 48 A 1 1 0 0 0 17 47 z M 17 51 A 1 1 0 0 0 16 52 A 1 1 0 0 0 17 53 A 1 1 0 0 0 18 52 A 1 1 0 0 0 17 51 z M 17 55 A 1 1 0 0 0 16 56 A 1 1 0 0 0 17 57 A 1 1 0 0 0 18 56 A 1 1 0 0 0 17 55 z M 17 59 A 1 1 0 0 0 16 60 A 1 1 0 0 0 17 61 A 1 1 0 0 0 18 60 A 1 1 0 0 0 17 59 z M 17 63 A 1 1 0 0 0 16 64 A 1 1 0 0 0 17 65 A 1 1 0 0 0 18 64 A 1 1 0 0 0 17 63 z" font-weight="400" font-family="sans-serif" white-space="normal" overflow="visible"/>
</svg>
